<?xml version="1.0" encoding="UTF-8" standalone="no"?>
<!-- Created with Inkscape (http://www.inkscape.org/) -->
<svg xmlns:rdf="http://www.w3.org/1999/02/22-rdf-syntax-ns#" xmlns="http://www.w3.org/2000/svg" xmlns:cc="http://web.resource.org/cc/" xmlns:dc="http://purl.org/dc/elements/1.1/" xmlns:svg="http://www.w3.org/2000/svg" xmlns:inkscape="http://www.inkscape.org/namespaces/inkscape" xmlns:sodipodi="http://sodipodi.sourceforge.net/DTD/sodipodi-0.dtd" xmlns:ns1="http://sozi.baierouge.fr" xmlns:xlink="http://www.w3.org/1999/xlink" id="svg2" viewBox="0 0 720 720" version="1.1" inkscape:version="0.91 r13725">
  <g id="layer1" transform="translate(0 -332.36)">
    <g id="g2925">
      <path id="path2913" style="color:#000000;fill:#ff0000" d="m360-1.1369e-13v360l93.17-347.73-93.17-12.27z" transform="translate(0 332.36)"/>
      <path id="path2915" style="color:#000000;fill:#ffff00" d="m453.17 344.63-93.17 347.73 180-311.77-86.83-35.96z"/>
      <path id="path2917" style="color:#000000;fill:#00ff00" d="m540 380.59-180 311.77 254.56-254.56-74.56-57.21z"/>
      <path id="path2919" style="color:#000000;fill:#00ffff" d="m614.56 437.8-254.56 254.56 311.77-180-57.21-74.56z"/>
      <path id="path2921" style="color:#000000;fill:#0000ff" d="m671.77 512.36-311.77 180 347.73-93.17-35.96-86.83z"/>
      <path id="path2923" style="color:#000000;fill:#ff00ff" d="m707.73 599.19-347.73 93.17l360-8e-13 -12.267-93.175z"/>
    </g>
    <g id="g2933" transform="matrix(-1 0 0 -1 720 1384.7)">
      <path id="path2935" style="color:#000000;fill:#ff0000" d="m360-1.1369e-13v360l93.17-347.73-93.17-12.27z" transform="translate(0 332.36)"/>
      <path id="path2937" style="color:#000000;fill:#ffff00" d="m453.17 344.63-93.17 347.73 180-311.77-86.83-35.96z"/>
      <path id="path2939" style="color:#000000;fill:#00ff00" d="m540 380.59-180 311.77 254.56-254.56-74.56-57.21z"/>
      <path id="path2941" style="color:#000000;fill:#00ffff" d="m614.56 437.8-254.56 254.56 311.77-180-57.21-74.56z"/>
      <path id="path2943" style="color:#000000;fill:#0000ff" d="m671.77 512.36-311.77 180 347.73-93.175-35.964-86.825z"/>
      <path id="path2945" style="color:#000000;fill:#ff00ff" d="m707.73 599.19-347.73 93.17l360-9e-13 -12.267-93.175z"/>
    </g>
    <g id="g2947" transform="matrix(-3.8489e-18 -1 1 -3.8489e-18 -332.36 1052.4)">
      <path id="path2949" style="color:#000000;fill:#ff0000" d="m360-1.1369e-13v360l93.17-347.73-93.17-12.27z" transform="translate(0 332.36)"/>
      <path id="path2951" style="color:#000000;fill:#ffff00" d="m453.17 344.63-93.17 347.73 180-311.77-86.83-35.96z"/>
      <path id="path2953" style="color:#000000;fill:#00ff00" d="m540 380.59-180 311.77 254.56-254.56-74.56-57.21z"/>
      <path id="path2955" style="color:#000000;fill:#00ffff" d="m614.56 437.8-254.56 254.56 311.77-180-57.21-74.56z"/>
      <path id="path2957" style="color:#000000;fill:#0000ff" d="m671.77 512.36-311.77 180 347.73-93.175-35.964-86.825z"/>
      <path id="path2959" style="color:#000000;fill:#ff00ff" d="m707.73 599.19-347.73 93.17l360-9e-13 -12.267-93.175z"/>
    </g>
    <g id="g2961" transform="matrix(3.8489e-18 1 -1 3.8489e-18 1052.4 332.36)">
      <path id="path2963" style="color:#000000;fill:#ff0000" d="m360-1.1369e-13v360l93.17-347.73-93.17-12.27z" transform="translate(0 332.36)"/>
      <path id="path2965" style="color:#000000;fill:#ffff00" d="m453.17 344.63-93.17 347.73 180-311.77-86.83-35.96z"/>
      <path id="path2967" style="color:#000000;fill:#00ff00" d="m540 380.59-180 311.77 254.56-254.56-74.56-57.21z"/>
      <path id="path2969" style="color:#000000;fill:#00ffff" d="m614.56 437.8-254.56 254.56 311.77-180-57.21-74.56z"/>
      <path id="path2971" style="color:#000000;fill:#0000ff" d="m671.77 512.36-311.77 180 347.73-93.175-35.964-86.825z"/>
      <path id="path2973" style="color:#000000;fill:#ff00ff" d="m707.73 599.19-347.73 93.17l360-9e-13 -12.267-93.175z"/>
    </g>
  </g>
  <metadata>
    <rdf:RDF>
      <cc:Work>
        <dc:format>image/svg+xml</dc:format>
        <dc:type rdf:resource="http://purl.org/dc/dcmitype/StillImage"/>
        <cc:license rdf:resource="http://creativecommons.org/licenses/publicdomain/"/>
        <dc:publisher>
          <cc:Agent rdf:about="http://openclipart.org/">
            <dc:title>Openclipart</dc:title>
          </cc:Agent>
        </dc:publisher>
        <dc:title>24gon 6 color</dc:title>
        <dc:date>2011-03-26T19:01:38</dc:date>
        <dc:description>when a 24gon is a solid color, it looks like a circle. Using different colors helps you see it for what it is.</dc:description>
        <dc:source>https://openclipart.org/detail/129325/24gon-6-color-by-10binary</dc:source>
        <dc:creator>
          <cc:Agent>
            <dc:title>10binary</dc:title>
          </cc:Agent>
        </dc:creator>
        <dc:subject>
          <rdf:Bag>
            <rdf:li>24gon</rdf:li>
            <rdf:li>6</rdf:li>
            <rdf:li>color</rdf:li>
          </rdf:Bag>
        </dc:subject>
      </cc:Work>
      <cc:License rdf:about="http://creativecommons.org/licenses/publicdomain/">
        <cc:permits rdf:resource="http://creativecommons.org/ns#Reproduction"/>
        <cc:permits rdf:resource="http://creativecommons.org/ns#Distribution"/>
        <cc:permits rdf:resource="http://creativecommons.org/ns#DerivativeWorks"/>
      </cc:License>
    </rdf:RDF>
  </metadata>
</svg>
