<?xml version="1.0" encoding="UTF-8" standalone="no"?>
<!-- Created with Inkscape (http://www.inkscape.org/) -->
<svg xmlns:inkscape="http://www.inkscape.org/namespaces/inkscape" xmlns:rdf="http://www.w3.org/1999/02/22-rdf-syntax-ns#" xmlns="http://www.w3.org/2000/svg" xmlns:cc="http://web.resource.org/cc/" xmlns:dc="http://purl.org/dc/elements/1.1/" xmlns:svg="http://www.w3.org/2000/svg" xmlns:sodipodi="http://sodipodi.sourceforge.net/DTD/sodipodi-0.dtd" xmlns:ns1="http://sozi.baierouge.fr" xmlns:xlink="http://www.w3.org/1999/xlink" id="svg2" viewBox="0 0 720 720" version="1.1" inkscape:version="0.91 r13725">
  <g id="g3216" transform="translate(45.99 -31.621)">
    <g id="g3118" transform="translate(-33.488 -65.689)">
      <path id="path3104" style="fill:#ff0000" d="m342.61 262.11a76.637 76.637 0 0 1 -38.318 66.369l-38.318-66.369z" transform="matrix(-2.3487 -4.0681 4.0681 -2.3487 -94.099 2155)"/>
      <path id="path3108" style="fill:#ffff00" d="m342.61 262.11a76.637 76.637 0 0 1 -38.318 66.369l-38.318-66.369z" transform="matrix(-1.9573 -3.3901 3.3901 -1.9573 -20.499 1872)"/>
      <path id="path3110" style="fill:#00ff00" d="m342.61 262.11a76.637 76.637 0 0 1 -38.318 66.369l-38.318-66.369z" transform="matrix(-1.5658 -2.7121 2.7121 -1.5658 53.1 1589.1)"/>
      <path id="path3112" style="fill:#00ffff" d="m342.61 262.11a76.637 76.637 0 0 1 -38.318 66.369l-38.318-66.369z" transform="matrix(-1.1744 -2.0341 2.0341 -1.1744 126.7 1306.1)"/>
      <path id="path3114" style="fill:#0000ff" d="m342.61 262.11a76.637 76.637 0 0 1 -38.318 66.369l-38.318-66.369z" transform="matrix(-.78291 -1.356 1.356 -.78291 200.3 1023.2)"/>
      <path id="path3116" style="fill:#ff00ff" d="m342.61 262.11a76.637 76.637 0 0 1 -38.318 66.369l-38.318-66.369z" transform="matrix(-.39146 -.67802 .67802 -.39146 273.9 740.25)"/>
    </g>
    <g id="g3146" transform="matrix(0.5 .86603 -.86603 0.5 536.3 -137.98)">
      <path id="path3148" style="fill:#ffff00" d="m342.61 262.11a76.637 76.637 0 0 1 -38.318 66.369l-38.318-66.369z" transform="matrix(-2.3487 -4.0681 4.0681 -2.3487 -94.099 2155)"/>
      <path id="path3150" style="fill:#00ff00" d="m342.61 262.11a76.637 76.637 0 0 1 -38.318 66.369l-38.318-66.369z" transform="matrix(-1.9573 -3.3901 3.3901 -1.9573 -20.499 1872)"/>
      <path id="path3152" style="fill:#00ffff" d="m342.61 262.11a76.637 76.637 0 0 1 -38.318 66.369l-38.318-66.369z" transform="matrix(-1.5658 -2.7121 2.7121 -1.5658 53.1 1589.1)"/>
      <path id="path3154" style="fill:#0000ff" d="m342.61 262.11a76.637 76.637 0 0 1 -38.318 66.369l-38.318-66.369z" transform="matrix(-1.1744 -2.0341 2.0341 -1.1744 126.7 1306.1)"/>
      <path id="path3156" style="fill:#ff00ff" d="m342.61 262.11a76.637 76.637 0 0 1 -38.318 66.369l-38.318-66.369z" transform="matrix(-.78291 -1.356 1.356 -.78291 200.3 1023.2)"/>
      <path id="path3158" style="fill:#ff0000" d="m342.61 262.11a76.637 76.637 0 0 1 -38.318 66.369l-38.318-66.369z" transform="matrix(-.39146 -.67802 .67802 -.39146 273.9 740.25)"/>
    </g>
    <g id="g3160" transform="matrix(0.5 -.86603 .86603 0.5 -255.78 463.91)">
      <path id="path3162" style="fill:#ff00ff" d="m342.61 262.11a76.637 76.637 0 0 1 -38.318 66.369l-38.318-66.369z" transform="matrix(-2.3487 -4.0681 4.0681 -2.3487 -94.099 2155)"/>
      <path id="path3164" style="fill:#ff0000" d="m342.61 262.11a76.637 76.637 0 0 1 -38.318 66.369l-38.318-66.369z" transform="matrix(-1.9573 -3.3901 3.3901 -1.9573 -20.499 1872)"/>
      <path id="path3166" style="fill:#ffff00" d="m342.61 262.11a76.637 76.637 0 0 1 -38.318 66.369l-38.318-66.369z" transform="matrix(-1.5658 -2.7121 2.7121 -1.5658 53.1 1589.1)"/>
      <path id="path3168" style="fill:#00ff00" d="m342.61 262.11a76.637 76.637 0 0 1 -38.318 66.369l-38.318-66.369z" transform="matrix(-1.1744 -2.0341 2.0341 -1.1744 126.7 1306.1)"/>
      <path id="path3170" style="fill:#00ffff" d="m342.61 262.11a76.637 76.637 0 0 1 -38.318 66.369l-38.318-66.369z" transform="matrix(-.78291 -1.356 1.356 -.78291 200.3 1023.2)"/>
      <path id="path3172" style="fill:#0000ff" d="m342.61 262.11a76.637 76.637 0 0 1 -38.318 66.369l-38.318-66.369z" transform="matrix(-.39146 -.67802 .67802 -.39146 273.9 740.25)"/>
    </g>
    <g id="g3174" transform="matrix(-1 0 0 -1 661.51 848.93)">
      <path id="path3176" style="fill:#00ffff" d="m342.61 262.11a76.637 76.637 0 0 1 -38.318 66.369l-38.318-66.369z" transform="matrix(-2.3487 -4.0681 4.0681 -2.3487 -94.099 2155)"/>
      <path id="path3178" style="fill:#0000ff" d="m342.61 262.11a76.637 76.637 0 0 1 -38.318 66.369l-38.318-66.369z" transform="matrix(-1.9573 -3.3901 3.3901 -1.9573 -20.499 1872)"/>
      <path id="path3180" style="fill:#ff00ff" d="m342.61 262.11a76.637 76.637 0 0 1 -38.318 66.369l-38.318-66.369z" transform="matrix(-1.5658 -2.7121 2.7121 -1.5658 53.1 1589.1)"/>
      <path id="path3182" style="fill:#ff0000" d="m342.61 262.11a76.637 76.637 0 0 1 -38.318 66.369l-38.318-66.369z" transform="matrix(-1.1744 -2.0341 2.0341 -1.1744 126.7 1306.1)"/>
      <path id="path3184" style="fill:#ffff00" d="m342.61 262.11a76.637 76.637 0 0 1 -38.318 66.369l-38.318-66.369z" transform="matrix(-.78291 -1.356 1.356 -.78291 200.3 1023.2)"/>
      <path id="path3186" style="fill:#00ff00" d="m342.61 262.11a76.637 76.637 0 0 1 -38.318 66.369l-38.318-66.369z" transform="matrix(-.39146 -.67802 .67802 -.39146 273.9 740.25)"/>
    </g>
    <g id="g3188" transform="matrix(-0.5 -.86603 .86603 -0.5 91.717 921.22)">
      <path id="path3190" style="fill:#0000ff" d="m342.61 262.11a76.637 76.637 0 0 1 -38.318 66.369l-38.318-66.369z" transform="matrix(-2.3487 -4.0681 4.0681 -2.3487 -94.099 2155)"/>
      <path id="path3192" style="fill:#ff00ff" d="m342.61 262.11a76.637 76.637 0 0 1 -38.318 66.369l-38.318-66.369z" transform="matrix(-1.9573 -3.3901 3.3901 -1.9573 -20.499 1872)"/>
      <path id="path3194" style="fill:#ff0000" d="m342.61 262.11a76.637 76.637 0 0 1 -38.318 66.369l-38.318-66.369z" transform="matrix(-1.5658 -2.7121 2.7121 -1.5658 53.1 1589.1)"/>
      <path id="path3196" style="fill:#ffff00" d="m342.61 262.11a76.637 76.637 0 0 1 -38.318 66.369l-38.318-66.369z" transform="matrix(-1.1744 -2.0341 2.0341 -1.1744 126.7 1306.1)"/>
      <path id="path3198" style="fill:#00ff00" d="m342.61 262.11a76.637 76.637 0 0 1 -38.318 66.369l-38.318-66.369z" transform="matrix(-.78291 -1.356 1.356 -.78291 200.3 1023.2)"/>
      <path id="path3200" style="fill:#00ffff" d="m342.61 262.11a76.637 76.637 0 0 1 -38.318 66.369l-38.318-66.369z" transform="matrix(-.39146 -.67802 .67802 -.39146 273.9 740.25)"/>
    </g>
    <g id="g3202" transform="matrix(-0.5 .86603 -.86603 -0.5 883.8 319.33)">
      <path id="path3204" style="fill:#00ff00" d="m342.61 262.11a76.637 76.637 0 0 1 -38.318 66.369l-38.318-66.369z" transform="matrix(-2.3487 -4.0681 4.0681 -2.3487 -94.099 2155)"/>
      <path id="path3206" style="fill:#00ffff" d="m342.61 262.11a76.637 76.637 0 0 1 -38.318 66.369l-38.318-66.369z" transform="matrix(-1.9573 -3.3901 3.3901 -1.9573 -20.499 1872)"/>
      <path id="path3208" style="fill:#0000ff" d="m342.61 262.11a76.637 76.637 0 0 1 -38.318 66.369l-38.318-66.369z" transform="matrix(-1.5658 -2.7121 2.7121 -1.5658 53.1 1589.1)"/>
      <path id="path3210" style="fill:#ff00ff" d="m342.61 262.11a76.637 76.637 0 0 1 -38.318 66.369l-38.318-66.369z" transform="matrix(-1.1744 -2.0341 2.0341 -1.1744 126.7 1306.1)"/>
      <path id="path3212" style="fill:#ff0000" d="m342.61 262.11a76.637 76.637 0 0 1 -38.318 66.369l-38.318-66.369z" transform="matrix(-.78291 -1.356 1.356 -.78291 200.3 1023.2)"/>
      <path id="path3214" style="fill:#ffff00" d="m342.61 262.11a76.637 76.637 0 0 1 -38.318 66.369l-38.318-66.369z" transform="matrix(-.39146 -.67802 .67802 -.39146 273.9 740.25)"/>
    </g>
  </g>
  <metadata>
    <rdf:RDF>
      <cc:Work>
        <dc:format>image/svg+xml</dc:format>
        <dc:type rdf:resource="http://purl.org/dc/dcmitype/StillImage"/>
        <cc:license rdf:resource="http://creativecommons.org/licenses/publicdomain/"/>
        <dc:publisher>
          <cc:Agent rdf:about="http://openclipart.org/">
            <dc:title>Openclipart</dc:title>
          </cc:Agent>
        </dc:publisher>
        <dc:title>scrambled 6 color pizza</dc:title>
        <dc:date>2011-08-02T05:10:36</dc:date>
        <dc:description>scrambled 6 color pizza</dc:description>
        <dc:source>https://openclipart.org/detail/153187/scrambled-6-color-pizza-by-10binary</dc:source>
        <dc:creator>
          <cc:Agent>
            <dc:title>10binary</dc:title>
          </cc:Agent>
        </dc:creator>
        <dc:subject>
          <rdf:Bag>
            <rdf:li>6</rdf:li>
            <rdf:li>color</rdf:li>
            <rdf:li>pizza</rdf:li>
            <rdf:li>scrambled</rdf:li>
          </rdf:Bag>
        </dc:subject>
      </cc:Work>
      <cc:License rdf:about="http://creativecommons.org/licenses/publicdomain/">
        <cc:permits rdf:resource="http://creativecommons.org/ns#Reproduction"/>
        <cc:permits rdf:resource="http://creativecommons.org/ns#Distribution"/>
        <cc:permits rdf:resource="http://creativecommons.org/ns#DerivativeWorks"/>
      </cc:License>
    </rdf:RDF>
  </metadata>
</svg>
