<?xml version="1.0" encoding="utf-8"?>

<!DOCTYPE svg PUBLIC "-//W3C//DTD SVG 1.1//EN" "http://www.w3.org/Graphics/SVG/1.1/DTD/svg11.dtd">
<svg version="1.1" id="Layer_1" xmlns="http://www.w3.org/2000/svg" xmlns:xlink="http://www.w3.org/1999/xlink" x="0px" y="0px"
	 viewBox="0 0 1616.077 1619.591" enable-background="new 0 0 1616.077 1619.591" xml:space="preserve">
<g>
	<g>
		<rect x="448.857" y="816.54" fill="#6F9F1B" width="14.118" height="14.118"/>
		<rect x="309.245" y="475.245" fill="#EDA311" width="22.38" height="22.38"/>
		<rect x="435.042" y="103.412" fill="#1F45DD" width="14.1" height="14.1"/>
		<rect x="346.115" y="1343.794" fill="#5F37D3" width="74.604" height="74.604"/>
		<rect x="1089.977" y="1091.02" fill="#7B4B31" width="99.848" height="99.848"/>
		<rect x="641.746" y="1255.175" fill="#A513B5" width="46.997" height="46.997"/>
		<rect x="122.644" y="395.758" fill="#8BFDE3" width="92.27" height="92.27"/>
		<rect x="586.314" y="284.037" fill="#6B7DF7" width="105.096" height="105.096"/>
		<rect x="1339.74" y="565.271" fill="#695329" width="73.872" height="73.872"/>
		<rect x="679.858" y="492.39" fill="#B5674D" width="102.396" height="102.396"/>
		<rect x="446.613" y="1255.057" fill="#01C919" width="64.698" height="64.698"/>
		<rect x="288.853" y="1346.147" fill="#339789" width="19.126" height="19.126"/>
		<rect x="1353.708" y="452.162" fill="#DF3F83" width="82.564" height="82.564"/>
		<rect x="190.218" y="1161.422" fill="#6D7957" width="69.888" height="69.888"/>
		<rect x="1512.475" y="945.963" fill="#7DA1C5" width="12.626" height="12.626"/>
		<rect x="53.79" y="773.736" fill="#A555B9" width="68.695" height="68.695"/>
		<rect x="788.04" y="254.807" fill="#A78363" width="81.484" height="81.484"/>
		<rect x="1479.416" y="405.335" fill="#F77757" width="15.97" height="15.97"/>
		<rect x="984.681" y="756.16" fill="#192BC1" width="24.793" height="24.793"/>
		<rect x="1174.487" y="802.503" fill="#DF9195" width="14.362" height="14.362"/>
		<rect x="236.318" y="254.025" fill="#2F8D69" width="11.912" height="11.912"/>
		<rect x="414.81" y="288.234" fill="#7169A3" width="31.627" height="31.627"/>
		<rect x="790.236" y="703.766" fill="#CD1343" width="24.859" height="24.859"/>
		<rect x="834.553" y="850.3" fill="#9D73DB" width="49.568" height="49.568"/>
		<rect x="990.305" y="1246.854" fill="#FDAF03" width="76.621" height="76.621"/>
		<rect x="1031.92" y="563.905" fill="#CDCD7F" width="83.777" height="83.777"/>
		<rect x="47.39" y="1010.708" fill="#AD117F" width="13.991" height="13.991"/>
		<rect x="624.588" y="229.083" fill="#F98F9F" width="16.138" height="16.138"/>
		<rect x="1219.733" y="849.91" fill="#13599D" width="14.969" height="14.969"/>
		<rect x="392.471" y="1270.491" fill="#6D458D" width="31.726" height="31.726"/>
		<rect x="1549.567" y="532.86" fill="#3FE1F3" width="14.438" height="14.438"/>
		<rect x="956.212" y="337.772" fill="#157BCB" width="55.247" height="55.247"/>
		<rect x="498.485" y="1210.277" fill="#936F11" width="21.468" height="21.468"/>
		<rect x="317.094" y="286.987" fill="#CDBD65" width="56.931" height="56.931"/>
		<rect x="248.291" y="1116.395" fill="#A3BD67" width="19.036" height="19.036"/>
		<rect x="653.464" y="76.419" fill="#87617B" width="26.317" height="26.317"/>
		<rect x="523.707" y="469.477" fill="#DD8785" width="14.816" height="14.816"/>
		<rect x="1301.638" y="1072.55" fill="#45C73D" width="93.256" height="93.256"/>
		<rect x="693.276" y="764.99" fill="#197B37" width="36.641" height="36.641"/>
		<rect x="1181.256" y="887.465" fill="#AFBF9F" width="70.8" height="70.8"/>
		<rect x="332.451" y="1061.3" fill="#BBD39D" width="25.785" height="25.785"/>
		<rect x="874.909" y="941.938" fill="#396715" width="25.023" height="25.023"/>
		<rect x="905.199" y="1403.49" fill="#678115" width="13.881" height="13.881"/>
		<rect x="168.686" y="831.478" fill="#4BC323" width="18.84" height="18.84"/>
		<rect x="1582.32" y="769.953" fill="#659BF5" width="23.983" height="23.983"/>
		<rect x="644.536" y="944.966" fill="#F199F9" width="55.978" height="55.978"/>
		<rect x="1012.165" y="36.596" fill="#E55D39" width="15.049" height="15.049"/>
		<rect x="447.634" y="405.86" fill="#01753B" width="22.42" height="22.42"/>
		<rect x="928.205" y="820.528" fill="#D9B39F" width="99.983" height="99.983"/>
		<rect x="607.227" y="790.562" fill="#578B85" width="54.704" height="54.704"/>
		<rect x="849.616" y="991.575" fill="#2941B1" width="17.665" height="17.665"/>
		<rect x="737.347" y="1543.595" fill="#AD9FB3" width="48.926" height="48.926"/>
		<rect x="1027.935" y="59.724" fill="#03C541" width="62.351" height="62.351"/>
		<rect x="254.096" y="489.376" fill="#29878F" width="15.336" height="15.336"/>
		<rect x="717.042" y="1265.997" fill="#7FCFA9" width="97.96" height="97.96"/>
		<rect x="321.369" y="179.794" fill="#ABFF0B" width="12.047" height="12.047"/>
		<rect x="1398.846" y="344.353" fill="#FBE141" width="20.642" height="20.642"/>
		<rect x="1410.557" y="723.138" fill="#F545B7" width="26.073" height="26.073"/>
		<rect x="415.793" y="240.177" fill="#59E38B" width="13.582" height="13.582"/>
		<rect x="942.882" y="146.459" fill="#F9D51F" width="89.909" height="89.909"/>
		<rect x="753.809" y="136.498" fill="#6F4F01" width="27.515" height="27.515"/>
		<rect x="853.639" y="1392.019" fill="#B59BCD" width="20.452" height="20.452"/>
		<rect x="391.727" y="1017.003" fill="#95935D" width="94.369" height="94.369"/>
		<rect x="534.527" y="1282.264" fill="#D93989" width="21.141" height="21.141"/>
		<rect x="686.402" y="182.421" fill="#1DE78F" width="75.71" height="75.71"/>
		<rect x="177.937" y="607.527" fill="#BB35E7" width="98.267" height="98.267"/>
		<rect x="1402.521" y="1316.012" fill="#C9777F" width="16.303" height="16.303"/>
		<rect x="1591.025" y="836.864" fill="#F1B17B" width="13.397" height="13.397"/>
		<rect x="1249.614" y="1387.569" fill="#09C700" width="56.238" height="56.238"/>
		<rect x="550.883" y="1209.8" fill="#75A1CD" width="44.276" height="44.276"/>
		<rect x="255.746" y="740.74" fill="#2567FD" width="14.7" height="14.7"/>
		<rect x="62.917" y="883.881" fill="#65C977" width="14.76" height="14.76"/>
		<rect x="806.439" y="1585.433" fill="#FDD95F" width="17.508" height="17.508"/>
		<rect x="633.052" y="31.202" fill="#9505E3" width="14.966" height="14.966"/>
		<rect x="838.261" y="1250.599" fill="#79F93D" width="13.242" height="13.242"/>
		<rect x="761.745" y="1160.275" fill="#C591AB" width="13.914" height="13.914"/>
		<rect x="441.737" y="1350.011" fill="#8DFB41" width="65.251" height="65.251"/>
		<rect x="515.428" y="1407.862" fill="#05457B" width="62.214" height="62.214"/>
		<rect x="268.587" y="1223.755" fill="#8551D9" width="98.537" height="98.537"/>
		<rect x="252.698" y="429.182" fill="#1FEDB1" width="19.535" height="19.535"/>
		<rect x="701.829" y="118.772" fill="#6BE9A1" width="23.01" height="23.01"/>
		<rect x="429.439" y="353.005" fill="#11016F" width="19.422" height="19.422"/>
		<rect x="58.359" y="1050.394" fill="#67CD49" width="13.353" height="13.353"/>
		<rect x="362.356" y="610.017" fill="#217973" width="14.496" height="14.496"/>
		<rect x="1571.928" y="646.405" fill="#7517F5" width="18.999" height="18.999"/>
		<rect x="1408.452" y="887.41" fill="#81438D" width="65.995" height="65.995"/>
		<rect x="1222.519" y="797.801" fill="#313F6B" width="34.256" height="34.256"/>
		<rect x="762.26" y="638.408" fill="#7BBBF5" width="13.214" height="13.214"/>
		<rect x="354.643" y="236.547" fill="#F94D7F" width="12.663" height="12.663"/>
		<rect x="294.288" y="1118.146" fill="#FB1F0D" width="75.952" height="75.952"/>
		<rect x="454.452" y="619.755" fill="#BB5111" width="68.202" height="68.202"/>
		<rect x="1415.919" y="673.558" fill="#472F6B" width="14.2" height="14.2"/>
		<rect x="97.351" y="1115.997" fill="#E96B7B" width="72.572" height="72.572"/>
		<rect x="1413.279" y="988.836" fill="#F7E391" width="87.934" height="87.934"/>
		<rect x="739.185" y="820.198" fill="#C51B5D" width="50.342" height="50.342"/>
		<rect x="11.993" y="729.292" fill="#43F1B9" width="24.598" height="24.598"/>
		<rect x="974.024" y="597.031" fill="#29AF71" width="13.604" height="13.604"/>
		<rect x="959.664" y="1101.125" fill="#8FD14D" width="103.213" height="103.213"/>
		<rect x="199.146" y="533.606" fill="#A5C3CD" width="34.412" height="34.412"/>
		<rect x="1262.903" y="1210.678" fill="#9721A3" width="62.753" height="62.753"/>
		<rect x="610.549" y="141.215" fill="#3F6D65" width="51.79" height="51.79"/>
		<rect x="1251.019" y="1316.6" fill="#A3ABDF" width="23.839" height="23.839"/>
		<rect x="1213.227" y="1346.613" fill="#CDAF71" width="14.112" height="14.112"/>
		<rect x="1468.099" y="678.726" fill="#8B0FD5" width="84.641" height="84.641"/>
		<rect x="489.893" y="1128.595" fill="#2701DF" width="55.765" height="55.765"/>
		<rect x="485.823" y="115.654" fill="#29EBEB" width="15.188" height="15.188"/>
		<rect x="812.857" y="650.93" fill="#91AD73" width="20.863" height="20.863"/>
		<rect x="109.542" y="991.972" fill="#533FAD" width="90.887" height="90.887"/>
		<rect x="835.342" y="1318.137" fill="#7F7171" width="41.067" height="41.067"/>
		<rect x="1401.888" y="387.205" fill="#E95DA1" width="41.598" height="41.598"/>
		<rect x="1343.059" y="774.494" fill="#79D3F7" width="16.361" height="16.361"/>
		<rect x="1060.685" y="752.994" fill="#BDFD07" width="72.906" height="72.906"/>
		<rect x="1047.813" y="670.59" fill="#2B7B9B" width="21.927" height="21.927"/>
		<rect x="807.086" y="131.381" fill="#ED090F" width="100.51" height="100.51"/>
		<rect x="1565.847" y="593.75" fill="#29DFD7" width="13.011" height="13.011"/>
		<rect x="190.182" y="298.18" fill="#F7FB81" width="81.221" height="81.221"/>
		<rect x="1213.047" y="1295.528" fill="#9F318F" width="12.181" height="12.181"/>
		<rect x="944.127" y="1338.742" fill="#332D2D" width="45.423" height="45.423"/>
		<rect x="1584.974" y="710.876" fill="#E18D09" width="15.256" height="15.256"/>
		<rect x="446.553" y="558.905" fill="#8F816B" width="18.736" height="18.736"/>
		<rect x="758.768" y="1200.195" fill="#C1EB45" width="48.765" height="48.765"/>
		<rect x="551.859" y="632.283" fill="#4327B9" width="14.163" height="14.163"/>
		<rect x="1490.343" y="798.137" fill="#9FC94F" width="69.487" height="69.487"/>
		<rect x="1085.82" y="1214.688" fill="#973BF9" width="21.955" height="21.955"/>
		<rect x="447.329" y="732.902" fill="#B703DF" width="33.022" height="33.022"/>
		<rect x="12.919" y="850.076" fill="#2D9FC5" width="17.285" height="17.285"/>
		<rect x="1135.076" y="423.308" fill="#E37B03" width="14.017" height="14.017"/>
		<rect x="1010.375" y="514.305" fill="#0723C5" width="28.578" height="28.578"/>
		<rect x="233.174" y="786.546" fill="#D36FF9" width="75.24" height="75.24"/>
		<rect x="1391.423" y="786.33" fill="#5D2B47" width="65.896" height="65.896"/>
		<rect x="1076.524" y="849.495" fill="#E19783" width="25.159" height="25.159"/>
		<rect x="797.318" y="878.606" fill="#D3ED6F" width="11.92" height="11.92"/>
		<rect x="974.939" y="1011.906" fill="#31CF4D" width="61.244" height="61.244"/>
		<rect x="491.125" y="75.778" fill="#79B773" width="12.989" height="12.989"/>
		<rect x="185.896" y="1268.455" fill="#B5157F" width="44.295" height="44.295"/>
		<rect x="596.801" y="559.846" fill="#8373F9" width="64.969" height="64.969"/>
		<rect x="913.916" y="602.039" fill="#01B9EB" width="14.276" height="14.276"/>
		<rect x="307.25" y="387.691" fill="#4593F3" width="48.922" height="48.922"/>
		<rect x="580.702" y="1273.977" fill="#8131F9" width="37.813" height="37.813"/>
		<rect x="728.815" y="371.295" fill="#B5E3AF" width="95.608" height="95.608"/>
		<rect x="1184.681" y="1203.347" fill="#3BF575" width="58.213" height="58.213"/>
		<rect x="810.328" y="515.344" fill="#EBDB17" width="43.536" height="43.536"/>
		<rect x="583.99" y="659.126" fill="#E13BA5" width="94.757" height="94.757"/>
		<rect x="1470.086" y="456.981" fill="#6BE34F" width="57.921" height="57.921"/>
		<rect x="680.074" y="26.264" fill="#E1BF4B" width="14.403" height="14.403"/>
		<rect x="848.218" y="1558.555" fill="#5BD321" width="51.241" height="51.241"/>
		<rect x="1046.006" y="285.884" fill="#4FDFE3" width="84.051" height="84.051"/>
		<rect x="908.608" y="1125.658" fill="#432919" width="36.59" height="36.59"/>
		<rect x="1122.519" y="464.999" fill="#85F7EB" width="88.128" height="88.128"/>
		<rect x="845.256" y="466.612" fill="#0B03D3" width="20.131" height="20.131"/>
		<rect x="278.3" y="986.687" fill="#7BDD8D" width="18.541" height="18.541"/>
		<rect x="702.051" y="625.486" fill="#B7D7F5" width="24.267" height="24.267"/>
		<rect x="1163.813" y="191.9" fill="#1D13E7" width="14.544" height="14.544"/>
		<rect x="397.092" y="1157.758" fill="#070993" width="66.894" height="66.894"/>
		<rect x="371.827" y="144.342" fill="#C98BD7" width="58.708" height="58.708"/>
		<rect x="1537.94" y="1077.465" fill="#5DBFBB" width="18.481" height="18.481"/>
		<rect x="1014.033" y="395.726" fill="#AD71CD" width="91.449" height="91.449"/>
		<rect x="1285.271" y="933.146" fill="#5F69C1" width="105.006" height="105.006"/>
		<rect x="387.948" y="374.9" fill="#CD0143" width="16.408" height="16.408"/>
		<rect x="1115.474" y="1034.753" fill="#23A377" width="22.083" height="22.083"/>
		<rect x="240.391" y="1034.497" fill="#B3CDED" width="55.291" height="55.291"/>
		<rect x="803.89" y="598.004" fill="#0B4DB5" width="18.466" height="18.466"/>
		<rect x="394.468" y="426.541" fill="#D9AD7D" width="15.201" height="15.201"/>
		<rect x="1291.826" y="775.495" fill="#6D8DAD" width="17.527" height="17.527"/>
		<rect x="516.425" y="1002.416" fill="#05F7F1" width="101.161" height="101.161"/>
		<rect x="945.251" y="947.072" fill="#29A101" width="44.38" height="44.38"/>
		<rect x="882.282" y="1017.694" fill="#D525D7" width="62.635" height="62.635"/>
		<rect x="1223.329" y="1124.627" fill="#EB7375" width="47.642" height="47.642"/>
		<rect x="533.709" y="875.819" fill="#51A735" width="96.74" height="96.74"/>
		<rect x="1067.555" y="1057.994" fill="#99E7FD" width="14.073" height="14.073"/>
		<rect x="817.477" y="1047.45" fill="#E7C583" width="38.719" height="38.719"/>
		<rect x="1154.034" y="636.294" fill="#2701C5" width="13.154" height="13.154"/>
		<rect x="29.871" y="610.396" fill="#872369" width="13.674" height="13.674"/>
		<rect x="1587.174" y="887.67" fill="#AB15C7" width="13.423" height="13.423"/>
		<rect x="722.166" y="913.44" fill="#9DE1D7" width="102.995" height="102.995"/>
		<rect x="35.12" y="940.793" fill="#593911" width="39.694" height="39.694"/>
		<rect x="361.107" y="1456.727" fill="#A7ED69" width="11.784" height="11.784"/>
		<rect x="1045.036" y="1442.214" fill="#ED8595" width="104.484" height="104.484"/>
		<rect x="1399.799" y="291.325" fill="#D34973" width="29.291" height="29.291"/>
		<rect x="414.074" y="1447.822" fill="#09EFDB" width="68.74" height="68.74"/>
		<rect x="942.261" y="639.547" fill="#53678D" width="69.865" height="69.865"/>
		<rect x="280.176" y="221.735" fill="#819D0B" width="28.654" height="28.654"/>
		<rect x="710.571" y="1056.509" fill="#7F5900" width="78.133" height="78.133"/>
		<rect x="717.832" y="685.613" fill="#5D77E5" width="38.789" height="38.789"/>
		<rect x="1479.836" y="1212.933" fill="#D5E1FD" width="14.387" height="14.387"/>
		<rect x="1135.893" y="1374.419" fill="#9347F5" width="52.954" height="52.954"/>
		<rect x="379.307" y="541.983" fill="#05B36D" width="26.894" height="26.894"/>
		<rect x="494.079" y="774.858" fill="#DB45C3" width="78.536" height="78.536"/>
		<rect x="819.147" y="49.783" fill="#D1F385" width="45.702" height="45.702"/>
		<rect x="846.161" y="708.849" fill="#0D1FEB" width="94.821" height="94.821"/>
		<rect x="506.083" y="400.765" fill="#2F1739" width="40.106" height="40.106"/>
		<rect x="717.419" y="292.268" fill="#7F4DE9" width="48.788" height="48.788"/>
		<rect x="1148.472" y="841.64" fill="#8975C1" width="26.994" height="26.994"/>
		<rect x="723.939" y="15.279" fill="#9DC12F" width="64.835" height="64.835"/>
		<rect x="339.157" y="762.826" fill="#A9AF29" width="79.603" height="79.603"/>
		<rect x="893.547" y="22.924" fill="#0F29C9" width="94.137" height="94.137"/>
		<rect x="1097.843" y="1264.798" fill="#0F4329" width="81.982" height="81.982"/>
		<rect x="1180.754" y="1488.686" fill="#4DE901" width="13.143" height="13.143"/>
		<rect x="1098.784" y="679.424" fill="#A5CB5D" width="40.646" height="40.646"/>
		<rect x="1443.576" y="552.865" fill="#957DEF" width="94.271" height="94.271"/>
		<rect x="18.809" y="671.784" fill="#E1DD3F" width="14.118" height="14.118"/>
		<rect x="410.222" y="603.888" fill="#75A15B" width="13.759" height="13.759"/>
		<rect x="1137.452" y="383.361" fill="#27190D" width="13.801" height="13.801"/>
		<rect x="796.093" y="770.151" fill="#4739D3" width="27.282" height="27.282"/>
		<rect x="361.349" y="659.157" fill="#2BEB9D" width="63.577" height="63.577"/>
		<rect x="615.373" y="1465.099" fill="#99854B" width="84.809" height="84.809"/>
		<rect x="927.928" y="1491.923" fill="#2FDF87" width="98.796" height="98.796"/>
		<rect x="1069.563" y="1023.068" fill="#C5CD2D" width="13.001" height="13.001"/>
		<rect x="639.226" y="1166.917" fill="#FDC5E9" width="20.986" height="20.986"/>
		<rect x="1071.788" y="513.43" fill="#7DB937" width="21.787" height="21.787"/>
		<rect x="1543.173" y="902.266" fill="#7DB3CD" width="14.535" height="14.535"/>
		<rect x="876.65" y="1222.69" fill="#91E1AF" width="86.067" height="86.067"/>
		<rect x="1115.927" y="90.463" fill="#9D9BF9" width="67.736" height="67.736"/>
		<rect x="961.2" y="425.506" fill="#8F7911" width="23.004" height="23.004"/>
		<rect x="1023.052" y="1219.437" fill="#97A965" width="14.277" height="14.277"/>
		<rect x="1044.191" y="898.536" fill="#77799D" width="102.312" height="102.312"/>
		<rect x="148.546" y="737.092" fill="#AF9F09" width="70.724" height="70.724"/>
		<rect x="1300.408" y="1306.93" fill="#156B5B" width="76.52" height="76.52"/>
		<rect x="1352.043" y="1187.977" fill="#E79B87" width="102.14" height="102.14"/>
		<rect x="327.625" y="991.28" fill="#CF81ED" width="38.66" height="38.66"/>
		<rect x="1442.563" y="1101.112" fill="#73D53F" width="77.718" height="77.718"/>
		<rect x="579.641" y="424.803" fill="#2769C9" width="79.11" height="79.11"/>
		<rect x="1305.101" y="671.312" fill="#416DE5" width="76.154" height="76.154"/>
		<rect x="716.202" y="1396.256" fill="#A37B9F" width="104.001" height="104.001"/>
		<rect x="835.886" y="9.795" fill="#730F13" width="11.993" height="11.993"/>
		<rect x="900.835" y="1351.462" fill="#61A54F" width="17.191" height="17.191"/>
		<rect x="1176.083" y="351.002" fill="#A1438B" width="83.853" height="83.853"/>
		<rect x="1240.082" y="448.894" fill="#355D49" width="85.198" height="85.198"/>
		<rect x="528.722" y="1333.692" fill="#2F699D" width="48.047" height="48.047"/>
		<rect x="1153.924" y="588.534" fill="#5F93E5" width="17.727" height="17.727"/>
		<rect x="291.735" y="881.956" fill="#0D6519" width="77.098" height="77.098"/>
		<rect x="312.529" y="640.484" fill="#2F7343" width="15.105" height="15.105"/>
		<rect x="1498.492" y="897.148" fill="#877BD9" width="20.357" height="20.357"/>
		<rect x="1059.855" y="181.409" fill="#31A799" width="77.526" height="77.526"/>
		<rect x="853.422" y="596.05" fill="#8F735D" width="20.884" height="20.884"/>
		<rect x="1519.701" y="983.685" fill="#9FBB07" width="61.064" height="61.064"/>
		<rect x="668.169" y="889.815" fill="#EFC7A7" width="18.581" height="18.581"/>
		<rect x="64.749" y="1092.876" fill="#6FCDD7" width="16.88" height="16.88"/>
		<rect x="892.947" y="264.714" fill="#F3B38B" width="62.811" height="62.811"/>
		<rect x="690.499" y="842.189" fill="#91DD1F" width="18.142" height="18.142"/>
		<rect x="138.146" y="1227.253" fill="#61C939" width="21.823" height="21.823"/>
		<rect x="57.678" y="643.452" fill="#17C133" width="86.348" height="86.348"/>
		<rect x="544.604" y="54.556" fill="#15B5EB" width="63.852" height="63.852"/>
		<rect x="9.774" y="794.521" fill="#23C301" width="13.779" height="13.779"/>
		<rect x="1276.571" y="225.988" fill="#DF4581" width="95.99" height="95.99"/>
		<rect x="768.15" y="100.882" fill="#D795F5" width="15.285" height="15.285"/>
		<rect x="1453.527" y="353.565" fill="#978B37" width="14.434" height="14.434"/>
		<rect x="863.754" y="371.895" fill="#7FD355" width="67.171" height="67.171"/>
		<rect x="1212.62" y="1455.654" fill="#893735" width="22.892" height="22.892"/>
		<rect x="511.391" y="1486.218" fill="#B54F15" width="83.406" height="83.406"/>
		<rect x="427.204" y="466.156" fill="#C9D3FD" width="51.481" height="51.481"/>
		<rect x="686.406" y="429.999" fill="#5F6BC5" width="14.963" height="14.963"/>
		<rect x="1137.142" y="1219.753" fill="#B3270F" width="14.333" height="14.333"/>
		<rect x="874.14" y="647.774" fill="#A9A71B" width="27.216" height="27.216"/>
		<rect x="1208.164" y="556.968" fill="#37A9AD" width="100.475" height="100.475"/>
		<rect x="1566.505" y="934.113" fill="#FB2523" width="24.624" height="24.624"/>
		<rect x="680.994" y="1174.985" fill="#3B3FF5" width="52.61" height="52.61"/>
		<rect x="1172.294" y="989.713" fill="#433DBF" width="96.943" height="96.943"/>
		<rect x="596.843" y="1334.312" fill="#47EDAD" width="104.98" height="104.98"/>
		<rect x="822.754" y="1445.469" fill="#A5C7B5" width="94.888" height="94.888"/>
		<rect x="515.241" y="706.403" fill="#F7C1A3" width="37.601" height="37.601"/>
		<rect x="1283.363" y="822.093" fill="#8B03D1" width="83.253" height="83.253"/>
		<rect x="950.687" y="1411.078" fill="#0B4DAB" width="53.511" height="53.511"/>
		<rect x="498.924" y="514.995" fill="#8D9379" width="78.127" height="78.127"/>
		<rect x="811.013" y="1117.131" fill="#21DBE3" width="86.3" height="86.3"/>
		<rect x="1032.37" y="714.023" fill="#1F9BB7" width="28.47" height="28.47"/>
		<rect x="640.261" y="1033.881" fill="#430DC9" width="53.337" height="53.337"/>
		<rect x="285.301" y="1389.869" fill="#47ADA3" width="39.198" height="39.198"/>
		<rect x="889.028" y="828.85" fill="#9B1D45" width="12.29" height="12.29"/>
		<rect x="241.032" y="947.127" fill="#4B9D63" width="13.568" height="13.568"/>
		<rect x="1068.353" y="142.013" fill="#6B43A3" width="18.567" height="18.567"/>
		<rect x="240.887" y="900.201" fill="#8D1583" width="13.561" height="13.561"/>
		<rect x="231.979" y="991.592" fill="#FF43F9" width="13.43" height="13.43"/>
		<rect x="1156.215" y="240.371" fill="#979749" width="89.403" height="89.403"/>
		<rect x="203.266" y="1112.45" fill="#61AB39" width="14.855" height="14.855"/>
		<rect x="627.267" y="1213.414" fill="#F71F8F" width="16.272" height="16.272"/>
		<rect x="64.679" y="517.475" fill="#FD13F5" width="89.476" height="89.476"/>
		<rect x="1169.212" y="678.721" fill="#116163" width="95.523" height="95.523"/>
		<rect x="834.536" y="353.35" fill="#BB6331" width="15.045" height="15.045"/>
		<rect x="984.012" y="265.753" fill="#FD8F7B" width="41.544" height="41.544"/>
		<rect x="474.864" y="158.673" fill="#EDF56F" width="98.558" height="98.558"/>
		<rect x="889.366" y="479.653" fill="#E5359B" width="90.811" height="90.811"/>
		<rect x="1294.908" y="351.099" fill="#1DF913" width="70.628" height="70.628"/>
		<rect x="83.826" y="467.664" fill="#7353DB" width="12.949" height="12.949"/>
		<rect x="18.206" y="903.04" fill="#29A96B" width="12.571" height="12.571"/>
		<rect x="756.751" y="761.129" fill="#4DD53B" width="14.561" height="14.561"/>
		<rect x="622.503" y="1568.445" fill="#B17385" width="24.64" height="24.64"/>
		<rect x="678.349" y="1569.841" fill="#572903" width="32.38" height="32.38"/>
		<rect x="398.64" y="876.181" fill="#57514F" width="102.865" height="102.865"/>
		<rect x="1026.558" y="1352.803" fill="#316DE3" width="65.541" height="65.541"/>
		<rect x="656.993" y="1122.122" fill="#D3C367" width="18.51" height="18.51"/>
		<rect x="232.911" y="1346.843" fill="#711FBB" width="19.484" height="19.484"/>
		<rect x="300.122" y="702.411" fill="#81A50B" width="32.437" height="32.437"/>
		<rect x="282.803" y="534.187" fill="#3F75AF" width="57.584" height="57.584"/>
		<rect x="369.162" y="479.633" fill="#1B2BF9" width="20.57" height="20.57"/>
		<rect x="1204.316" y="141.166" fill="#170753" width="78.264" height="78.264"/>
		<rect x="1214.969" y="1400.015" fill="#23A791" width="12.466" height="12.466"/>
		<rect x="573.227" y="1133.386" fill="#CBED0F" width="46.404" height="46.404"/>
		<rect x="482.119" y="294.436" fill="#2B3F3F" width="72.213" height="72.213"/>
		<rect x="111.959" y="871.113" fill="#67C7A7" width="91.22" height="91.22"/>
	</g>
</g>
</svg>
